<?xml version="1.0" encoding="UTF-8"?>
<!-- Generator: visioncortex VTracer 0.6.3 -->
<svg version="1.1" xmlns="http://www.w3.org/2000/svg" width="96" height="96">
<path d="M0 0 C1.92 -0.01 1.92 -0.01 3.89 -0.01 C4.55 -0.01 5.21 0 5.9 0.01 C7.93 0.02 9.96 0.01 12 -0.01 C13.92 -0.01 13.92 -0.01 15.88 0 C17.05 0 18.22 0.01 19.43 0.01 C20.36 0.14 21.28 0.27 22.24 0.4 C24.55 3.86 24.51 5.32 24.49 9.4 C24.5 10.98 24.5 10.98 24.5 12.59 C24.24 15.4 24.24 15.4 22.24 18.4 C20.08 18.74 20.08 18.74 17.45 18.69 C16.51 18.68 15.57 18.67 14.6 18.66 C13.12 18.62 13.12 18.62 11.61 18.59 C10.12 18.57 10.12 18.57 8.61 18.54 C6.15 18.51 3.69 18.46 1.24 18.4 C1.24 22.36 1.24 26.32 1.24 30.4 C2.6 30.34 3.96 30.28 5.37 30.22 C7.18 30.18 8.99 30.13 10.8 30.09 C11.7 30.04 12.59 30 13.51 29.96 C18.98 29.86 22.42 30.45 26.78 33.83 C32.48 39.97 31.75 46.32 31.74 54.27 C31.77 55.53 31.8 56.78 31.82 58.07 C31.85 68.38 31.85 68.38 29.08 72.59 C24.55 77.06 20.68 78.73 14.27 78.79 C13.18 78.78 13.18 78.78 12.07 78.76 C10.92 78.76 10.92 78.76 9.75 78.76 C8.15 78.76 6.55 78.75 4.94 78.73 C2.48 78.71 0.02 78.71 -2.44 78.72 C-4 78.72 -5.56 78.71 -7.12 78.7 C-8.23 78.7 -8.23 78.7 -9.35 78.7 C-14.53 78.63 -14.53 78.63 -16.76 76.4 C-17.03 73.21 -17.03 73.21 -17.01 69.4 C-17.02 68.14 -17.02 66.88 -17.03 65.59 C-16.76 62.4 -16.76 62.4 -14.76 60.4 C-11.96 60.17 -11.96 60.17 -8.44 60.2 C-6.56 60.21 -6.56 60.21 -4.63 60.22 C-3.31 60.24 -2 60.26 -0.64 60.27 C0.7 60.28 2.04 60.29 3.38 60.3 C6.67 60.32 9.95 60.36 13.24 60.4 C13.24 56.44 13.24 52.48 13.24 48.4 C11.88 48.46 10.51 48.51 9.11 48.57 C7.3 48.62 5.49 48.67 3.68 48.71 C2.78 48.75 1.89 48.79 0.96 48.84 C-4.51 48.94 -7.94 48.35 -12.3 44.97 C-18 38.83 -17.28 32.48 -17.26 24.52 C-17.29 23.27 -17.32 22.01 -17.35 20.72 C-17.36 13.27 -17.11 8.79 -11.76 3.4 C-7.77 0.47 -4.91 0.01 0 0 Z M-9.57 7.59 C-15.31 14.96 -14.57 24.76 -13.48 33.68 C-12.47 38.1 -10.28 40.66 -6.76 43.4 C-1.47 45.3 3.15 45.65 8.68 45.52 C12.42 45.46 12.42 45.46 16.24 45.4 C16.24 51.34 16.24 57.28 16.24 63.4 C14.32 63.36 12.41 63.33 10.44 63.29 C7.93 63.26 5.43 63.24 2.93 63.21 C1.66 63.19 0.4 63.16 -0.9 63.13 C-2.11 63.13 -3.32 63.12 -4.56 63.11 C-5.68 63.09 -6.79 63.07 -7.94 63.06 C-10.76 63.17 -10.76 63.17 -12.63 64.73 C-14.4 67.33 -14.14 69.34 -13.76 72.4 C-12.64 74.17 -12.64 74.17 -10.76 75.4 C-8.17 75.84 -8.17 75.84 -5.25 75.76 C-4.16 75.76 -3.07 75.76 -1.95 75.76 C-0.82 75.74 0.32 75.73 1.49 75.71 C2.61 75.71 3.73 75.72 4.88 75.72 C15.12 75.71 15.12 75.71 24.05 71.21 C29.79 63.83 29.04 54.03 27.96 45.11 C26.94 40.7 24.76 38.13 21.24 35.4 C15.95 33.5 11.33 33.14 5.8 33.27 C2.06 33.34 2.06 33.34 -1.76 33.4 C-1.76 27.46 -1.76 21.52 -1.76 15.4 C-0.34 15.41 1.08 15.42 2.54 15.43 C4.4 15.44 6.26 15.45 8.11 15.46 C9.05 15.47 9.99 15.48 10.95 15.49 C11.85 15.49 12.74 15.49 13.67 15.5 C14.5 15.5 15.32 15.51 16.18 15.51 C18.3 15.53 18.3 15.53 20.24 14.4 C20.24 11.1 20.24 7.8 20.24 4.4 C16.91 2.73 13.21 3.21 9.55 3.21 C8.76 3.2 7.97 3.19 7.15 3.17 C0.85 3.16 -4.44 3.59 -9.57 7.59 Z " fill="#3161FF" transform="translate(40.76171875,8.6015625)"/>
<path d="M0 0 C0.9 0 1.79 0.01 2.71 0.01 C4.12 0.02 4.12 0.02 5.55 0.04 C6.5 0.04 7.44 0.04 8.42 0.05 C10.76 0.06 13.09 0.08 15.43 0.1 C15.43 1.42 15.43 2.74 15.43 4.1 C14.17 4.14 12.9 4.17 11.6 4.21 C9.94 4.28 8.28 4.34 6.62 4.41 C5.78 4.43 4.95 4.46 4.09 4.48 C3.29 4.51 2.49 4.55 1.66 4.59 C0.92 4.61 0.18 4.64 -0.58 4.67 C-3.13 5.22 -4.04 6 -5.57 8.1 C-6.03 10.07 -6.03 10.07 -5.97 12.22 C-5.97 13.01 -5.98 13.8 -5.98 14.61 C-5.97 15.43 -5.96 16.25 -5.95 17.1 C-5.96 17.92 -5.97 18.74 -5.98 19.58 C-5.98 20.37 -5.97 21.16 -5.97 21.97 C-5.97 22.69 -5.96 23.41 -5.96 24.15 C-5.45 26.71 -4.68 27.58 -2.57 29.1 C-0.43 29.54 -0.43 29.54 1.92 29.47 C3.23 29.49 3.23 29.49 4.56 29.52 C6.38 29.53 8.2 29.54 10.03 29.54 C14.32 29.63 16.78 29.69 20.5 32.01 C24.56 36.4 23.69 41.2 23.74 46.91 C23.77 47.91 23.8 48.91 23.83 49.94 C23.89 57.33 23.89 57.33 21.54 61.23 C17.99 64.38 15.79 64.22 11.11 64.2 C9.85 64.19 8.6 64.19 7.3 64.19 C5.98 64.18 4.66 64.17 3.3 64.16 C1.96 64.16 0.63 64.15 -0.71 64.15 C-4 64.13 -7.29 64.12 -10.57 64.1 C-10.57 62.78 -10.57 61.46 -10.57 60.1 C-9.8 60.08 -9.03 60.07 -8.23 60.05 C-4.74 59.98 -1.25 59.88 2.24 59.79 C3.46 59.76 4.67 59.74 5.92 59.72 C7.09 59.68 8.25 59.65 9.45 59.61 C11.06 59.57 11.06 59.57 12.7 59.53 C15.42 59.3 15.42 59.3 17.28 57.82 C18.68 55.72 18.82 54.49 18.83 51.97 C18.83 51.18 18.84 50.39 18.84 49.58 C18.83 48.76 18.82 47.94 18.8 47.1 C18.82 46.28 18.83 45.46 18.84 44.61 C18.83 43.43 18.83 43.43 18.83 42.22 C18.82 41.5 18.82 40.78 18.82 40.04 C18.31 37.49 17.54 36.62 15.43 35.1 C13.29 34.66 13.29 34.66 10.94 34.73 C10.07 34.71 9.2 34.69 8.3 34.67 C6.48 34.66 4.65 34.66 2.83 34.66 C-1.46 34.57 -3.92 34.5 -7.64 32.19 C-11.7 27.79 -10.83 23 -10.88 17.29 C-10.91 16.29 -10.94 15.29 -10.97 14.26 C-11.03 6.87 -11.03 6.87 -8.68 2.96 C-5.61 0.25 -3.99 -0.03 0 0 Z " fill="#DEADFF" transform="translate(41.5703125,15.90234375)"/>
<path d="M0 0 C2.47 0.49 2.47 0.49 5 1 C5.15 5.19 5.23 9.37 5.31 13.56 C5.35 14.74 5.4 15.93 5.44 17.14 C5.52 23.21 5.53 27.78 1.67 32.65 C-3.3 36.67 -7.95 37.44 -14.17 37.36 C-15.32 37.36 -15.32 37.36 -16.49 37.36 C-18.09 37.36 -19.69 37.35 -21.3 37.34 C-23.76 37.31 -26.22 37.32 -28.68 37.32 C-30.24 37.32 -31.8 37.31 -33.36 37.3 C-34.46 37.3 -34.46 37.3 -35.59 37.3 C-40.77 37.23 -40.77 37.23 -43 35 C-43.27 31.81 -43.27 31.81 -43.25 28 C-43.26 26.74 -43.26 25.48 -43.27 24.19 C-43 21 -43 21 -41 19 C-38.2 18.77 -38.2 18.77 -34.68 18.8 C-32.79 18.81 -32.79 18.81 -30.87 18.82 C-28.89 18.85 -28.89 18.85 -26.88 18.88 C-25.54 18.89 -24.2 18.89 -22.86 18.9 C-19.57 18.93 -16.29 18.96 -13 19 C-13 16.36 -13 13.72 -13 11 C-12.01 11 -11.02 11 -10 11 C-10 14.63 -10 18.26 -10 22 C-19.57 22.33 -29.14 22.66 -39 23 C-39 26.3 -39 29.6 -39 33 C-34.65 33.06 -30.29 33.09 -25.94 33.12 C-24.09 33.15 -24.09 33.15 -22.21 33.18 C-16.08 33.21 -10.77 33.16 -5 31 C-4.01 30.67 -3.02 30.34 -2 30 C2.71 21.09 1.8 9.57 0 0 Z " fill="#B229FF" transform="translate(67,50)"/>
<path d="M0 0 C0.99 0 1.98 0 3 0 C3.12 0.95 3.24 1.91 3.37 2.89 C3.53 4.14 3.7 5.4 3.88 6.69 C4.04 7.93 4.2 9.17 4.37 10.45 C4.94 13.64 5.44 16.17 7 19 C14.23 23.4 24.78 22.7 33 23 C33 25.31 33 27.62 33 30 C32.01 30 31.02 30 30 30 C30 28.68 30 27.36 30 26 C29.43 26.03 28.86 26.05 28.28 26.08 C25.66 26.18 23.05 26.25 20.44 26.31 C19.09 26.38 19.09 26.38 17.72 26.44 C12.22 26.54 8.66 26.01 4.39 22.4 C1 18.98 0.06 16.87 -0.29 12.01 C-0.27 10.57 -0.24 9.13 -0.19 7.69 C-0.17 6.95 -0.16 6.21 -0.15 5.44 C-0.11 3.63 -0.06 1.81 0 0 Z " fill="#7443FF" transform="translate(24,31)"/>
<path d="M0 0 C0.9 0 1.79 0.01 2.71 0.01 C4.12 0.02 4.12 0.02 5.55 0.04 C6.5 0.04 7.44 0.04 8.42 0.05 C10.76 0.06 13.09 0.08 15.43 0.1 C15.43 1.42 15.43 2.74 15.43 4.1 C14.17 4.14 12.9 4.17 11.6 4.21 C9.94 4.28 8.28 4.34 6.62 4.41 C5.78 4.43 4.95 4.46 4.09 4.48 C3.29 4.51 2.49 4.55 1.66 4.59 C0.92 4.61 0.18 4.64 -0.58 4.67 C-3.14 5.22 -4.03 5.99 -5.57 8.1 C-6.07 10.12 -6.07 10.12 -6.08 12.33 C-6.12 13.13 -6.15 13.93 -6.19 14.76 C-6.21 15.59 -6.23 16.43 -6.26 17.29 C-6.29 18.13 -6.33 18.98 -6.36 19.85 C-6.44 21.93 -6.51 24.01 -6.57 26.1 C-7.89 26.1 -9.21 26.1 -10.57 26.1 C-10.69 22.87 -10.76 19.64 -10.82 16.41 C-10.85 15.5 -10.89 14.59 -10.92 13.65 C-10.99 9.28 -11.01 6.81 -8.68 3.02 C-5.63 0.24 -4.02 -0.03 0 0 Z " fill="#82C2FF" transform="translate(41.5703125,15.90234375)"/>
<path d="M0 0 C2.31 -0.19 2.31 -0.19 5 0 C5.46 0.49 5.92 0.98 6.39 1.49 C8.5 3.47 9.64 3.37 12.49 3.37 C13.8 3.4 13.8 3.4 15.13 3.42 C16.95 3.43 18.77 3.44 20.6 3.44 C24.89 3.53 27.35 3.6 31.07 5.91 C33.88 8.96 34.12 10.58 34.06 14.62 C34.05 15.44 34.04 16.26 34.04 17.1 C34.02 17.73 34.01 18.35 34 19 C32.68 19 31.36 19 30 19 C29.88 18.36 29.76 17.72 29.63 17.07 C29.47 16.24 29.3 15.41 29.12 14.56 C28.96 13.74 28.8 12.92 28.63 12.07 C28.32 11.04 28.32 11.04 28 10 C25.66 8.83 24.21 8.86 21.61 8.82 C20.73 8.8 19.86 8.78 18.96 8.75 C17.12 8.71 15.29 8.68 13.45 8.66 C9.16 8.52 6.63 8.39 2.91 6.1 C0.98 3.98 0.3 2.82 0 0 Z " fill="#B2B8FF" transform="translate(31,42)"/>
<path d="M0 0 C0.99 0 1.98 0 3 0 C3 2.64 3 5.28 3 8 C3.57 7.97 4.14 7.95 4.72 7.92 C7.34 7.82 9.95 7.75 12.56 7.69 C13.46 7.65 14.35 7.6 15.28 7.56 C21.88 7.44 25.05 8.58 30 13 C33 17.16 33 17.16 33 20 C30.63 19.75 30.63 19.75 28 19 C27.7 18.36 27.4 17.72 27.09 17.06 C26.18 14.88 26.18 14.88 24.18 13.99 C16.2 11.65 8.26 11.3 0 11 C0 7.37 0 3.74 0 0 Z " fill="#614AFF" transform="translate(39,31)"/>
<path d="M0 0 C2.47 0.49 2.47 0.49 5 1 C5 8.92 5 16.84 5 25 C3.35 25.33 1.7 25.66 0 26 C0.16 25.15 0.32 24.31 0.49 23.44 C1.01 19.91 1.13 16.57 1.12 13 C1.13 11.82 1.13 10.65 1.13 9.44 C1.01 6.2 0.61 3.18 0 0 Z " fill="#9339FF" transform="translate(67,50)"/>
</svg>
